<svg xmlns="http://www.w3.org/2000/svg" width="100" height="100" viewBox="0 0 100 100" fill="white">
  <circle cx="50" cy="50" r="15"/>
  <rect x="48.5" y="0" width="3" height="100"/>
  <rect x="0" y="48.5" width="100" height="3"/>
  <path d="M50 86.5C30.432 86.5 14.5 70.568 14.5 51C14.5 31.432 30.432 15.5 50 15.5C69.568 15.5 85.5 31.432 85.5 51C85.5 70.568 69.568 86.5 50 86.5ZM50 18.5C32.092 18.5 17.5 32.092 17.5 51C17.5 69.908 32.092 84.5 50 84.5C67.908 84.5 82.5 69.908 82.5 51C82.5 32.092 67.908 18.5 50 18.5Z"/>
  <path d="M50 77C35.096 77 23 64.904 23 50C23 35.096 35.096 23 50 23C64.904 23 77 35.096 77 50C77 64.904 64.904 77 50 77ZM50 27C37.298 27 27 37.298 27 50C27 62.702 37.298 73 50 73C62.702 73 73 62.702 73 50C73 37.298 62.702 27 50 27Z"/>
</svg>